<svg width="512" height="512" viewBox="0 0 512 512" fill="none" xmlns="http://www.w3.org/2000/svg">
<path d="M258.674 159.068H293.436L294.773 167.09H258.674V159.068Z" fill="#00F6FD"/>
<path d="M201.184 267.364L218.565 298.115L210.543 300.789L194.499 272.712L201.184 267.364Z" fill="#00F6FD"/>
<path d="M352.263 267.364L357.611 272.712L341.567 300.789L333.545 298.115L352.263 267.364Z" fill="#00F6FD"/>
<path d="M48.7673 165.753L39.4084 144.362L31.3865 283.408L47.4303 274.049L48.7673 165.753Z" fill="white"/>
<path d="M128.986 338.225C107.595 300.789 56.7891 279.397 50.1042 276.723L32.7234 286.082L127.649 364.964C130.323 368.975 134.334 368.975 138.345 366.301L142.356 363.627L128.986 338.225Z" fill="white"/>
<path d="M202.521 319.507L173.107 270.038C173.107 268.701 173.107 267.364 173.107 266.027L191.825 249.984L182.466 244.636L155.726 268.701L142.356 278.06C127.649 287.419 107.595 282.071 99.5727 266.027L52.7781 172.438L51.4412 274.049C59.4631 278.06 110.269 298.115 131.66 336.888L146.367 362.29L194.499 334.214L227.923 323.518V312.822L205.195 320.844C205.195 322.181 203.858 320.844 202.521 319.507Z" fill="white"/>
<path d="M457.885 86.8712L480.614 88.2082L364.296 12V30.7178L457.885 86.8712Z" fill="white"/>
<path d="M268.033 69.4904C310.817 69.4904 354.937 36.0658 360.285 32.0548L361.622 12L246.641 54.7836C242.63 56.1205 239.956 60.1315 239.956 64.1425V69.4904H268.033Z" fill="white"/>
<path d="M246.641 143.025H304.132C305.469 143.025 306.806 144.362 306.806 145.699L310.817 169.764L320.175 164.416L313.491 128.318V112.274C313.491 94.8931 328.197 80.1863 345.578 80.1863L449.863 86.8712L361.622 34.7288C354.937 40.0767 310.817 73.5014 268.033 73.5014H238.619V128.318L230.597 163.079L239.956 168.427L243.967 144.362C245.304 143.025 245.304 143.025 246.641 143.025Z" fill="white"/>
<path d="M321.512 479.945L308.143 500L432.482 437.162L416.438 426.466L321.512 479.945Z" fill="white"/>
<path d="M432.482 324.855C411.091 362.29 417.776 415.77 419.112 423.792L436.493 434.488L456.548 312.822C457.885 308.811 455.211 304.8 451.2 302.126L447.189 299.452L432.482 324.855Z" fill="white"/>
<path d="M379.003 270.038L349.589 319.507C349.589 320.844 346.915 320.844 346.915 320.844L324.187 312.822V323.518L357.611 334.214L372.318 342.236C387.025 351.595 392.373 370.312 384.351 385.019L326.86 471.923L415.102 422.455C413.765 413.096 407.08 359.616 428.471 322.181L443.178 296.778L395.047 268.701L368.307 244.636L358.948 249.984L377.666 266.027C379.003 267.364 379.003 268.701 379.003 270.038Z" fill="white"/>
<path d="M286.751 279.397H265.359C265.359 279.397 264.022 279.397 264.022 280.734L253.326 316.833C260.011 319.507 268.033 320.844 276.055 320.844C284.077 320.844 292.099 319.507 298.784 316.833L286.751 279.397Z" fill="white"/>
<path d="M239.956 235.277L250.652 216.559V215.222L225.25 188.482C214.554 199.178 206.532 212.548 202.521 227.255L238.619 235.277C238.619 236.614 239.956 236.614 239.956 235.277Z" fill="white"/>
<path d="M326.86 188.482L301.458 215.222V216.559L312.154 235.277C312.154 235.277 313.491 236.614 313.491 235.277L349.589 227.255C346.915 212.548 338.893 199.178 326.86 188.482Z" fill="white"/>
<path d="M302.795 173.775L300.121 152.384H253.326L249.315 173.775C241.293 176.449 234.608 181.797 227.923 185.808L235.945 195.167C246.641 185.808 261.348 180.46 276.055 180.46C290.762 180.46 305.469 185.808 316.164 195.167L324.186 187.145C317.501 180.46 310.816 176.449 302.795 173.775ZM254.663 171.101L257.337 156.395H296.11L298.784 171.101H254.663Z" fill="white"/>
<path d="M211.88 244.636C211.88 240.625 211.88 237.951 213.217 235.277L201.184 232.603C199.847 236.614 199.847 240.625 199.847 244.636C199.847 248.647 199.847 252.658 201.184 256.668L183.803 270.038L206.532 310.148L226.587 302.126C233.271 307.474 239.956 311.485 247.978 314.159L251.989 303.463C229.261 294.104 211.88 271.375 211.88 244.636ZM209.206 304.8L189.151 271.375L199.847 262.016L221.239 299.452L209.206 304.8Z" fill="white"/>
<path d="M350.926 256.668C350.926 252.658 352.263 248.647 352.263 244.636C352.263 240.625 352.263 236.614 350.926 231.266L338.893 233.94C338.893 236.614 340.23 240.625 340.23 244.636C340.23 271.375 322.849 295.441 298.784 304.8L302.795 315.496C310.817 312.822 317.501 308.811 324.186 303.463L344.241 311.485L366.97 271.375L350.926 256.668ZM342.904 304.8L329.534 299.452L350.926 262.016L361.622 271.375L342.904 304.8Z" fill="white"/>
<path d="M336.219 235.277L314.828 240.625C314.828 240.625 314.828 240.625 313.491 240.625C312.154 240.625 309.48 239.288 309.48 237.951L298.784 219.233C297.447 217.896 297.447 215.222 298.784 213.885L313.491 197.841C302.795 189.819 290.762 184.471 276.055 184.471C261.348 184.471 249.315 189.819 238.619 197.841L253.326 213.885C254.663 215.222 254.663 217.896 253.326 219.233L242.63 237.951C241.293 239.288 239.956 240.625 238.619 240.625C238.619 240.625 238.619 240.625 237.282 240.625L217.228 235.277C217.228 237.951 215.891 241.962 215.891 244.636C215.891 270.038 231.934 291.43 254.663 300.789L261.348 279.397C262.685 276.723 264.022 275.386 266.696 275.386H288.088C290.762 275.386 292.099 276.723 293.436 279.397L300.121 300.789C322.85 291.43 338.893 270.038 338.893 244.636C336.219 240.625 336.219 237.951 336.219 235.277ZM292.099 253.995C288.088 259.342 282.74 263.353 276.055 263.353C273.381 263.353 269.37 262.016 266.696 260.679C257.337 255.332 254.663 243.299 260.011 235.277C264.022 229.929 269.37 225.918 276.055 225.918C278.729 225.918 282.74 227.255 285.414 228.592C289.425 231.266 293.436 235.277 294.773 240.625C296.11 244.636 294.773 248.647 292.099 253.995Z" fill="white"/>
<path d="M276.055 260.679C284.916 260.679 292.099 253.496 292.099 244.636C292.099 235.775 284.916 228.592 276.055 228.592C267.194 228.592 260.011 235.775 260.011 244.636C260.011 253.496 267.194 260.679 276.055 260.679Z" fill="#00F6FD"/>
</svg>
