<svg width="512" height="512" viewBox="0 0 512 512" fill="none" xmlns="http://www.w3.org/2000/svg">
<path d="M405.475 81.7375C398.772 81.7375 394.75 76.3751 394.75 69.6722V22.7517C394.75 14.7082 405.475 9.3459 414.859 13.3677H416.2C438.99 21.4112 455.077 38.8388 455.077 58.9475V93.8028C443.012 88.4404 426.925 83.0781 405.475 81.7375Z" fill="white"/>
<path d="M105.184 81.7375C111.887 81.7375 115.909 76.3751 115.909 69.6722V22.7517C115.909 14.7082 105.184 9.3459 95.8001 13.3677H94.4595C71.6695 21.4112 56.9231 40.1794 56.9231 58.9475V93.8028C67.6478 88.4404 83.7348 83.0781 105.184 81.7375Z" fill="white"/>
<path d="M186.96 79.0563H323.699C339.786 79.0563 354.533 84.4186 366.598 89.781C369.279 91.1216 373.301 88.4404 373.301 84.4186V40.1793C373.301 28.1141 363.917 18.73 351.852 18.73H158.808C146.742 18.73 137.358 28.1141 137.358 40.1793V84.4186C137.358 88.4404 141.38 91.1216 145.402 89.781C156.126 84.4186 172.213 79.0563 186.96 79.0563Z" fill="white"/>
<path d="M323.699 89.781H186.96C172.213 89.781 157.467 95.1433 146.742 100.506C140.039 103.187 137.358 109.89 137.358 115.252V226.521C137.358 231.883 141.38 235.905 146.742 235.905H363.917C369.279 235.905 373.301 231.883 373.301 226.521V115.252C373.301 108.549 369.279 103.187 363.917 100.506C353.192 95.1433 338.446 89.781 323.699 89.781Z" fill="white"/>
<path d="M162.829 258.695C164.17 262.717 165.511 266.738 164.17 272.101C157.467 309.637 156.126 340.47 158.808 355.217C161.489 368.623 162.829 380.688 252.649 380.688C342.468 380.688 343.808 368.623 346.489 355.217C349.171 340.47 346.489 309.637 341.127 272.101C339.787 266.738 341.127 262.717 342.468 258.695H162.829Z" fill="white"/>
<path d="M253.989 434.311C201.706 434.311 158.808 431.63 131.996 410.181V478.551C131.996 490.616 141.38 500 153.445 500H357.214C369.279 500 378.664 490.616 378.664 478.551V407.5C353.192 431.63 307.612 434.311 253.989 434.311Z" fill="white"/>
<path d="M375.982 251.992L365.258 254.673C357.214 256.014 351.852 264.057 353.192 272.101C357.214 297.572 362.577 337.789 358.555 357.898C354.533 376.666 351.852 392.753 253.989 392.753C156.126 392.753 153.445 378.007 149.424 357.898C145.402 337.789 150.764 296.231 154.786 272.101C156.126 264.057 150.764 257.354 142.721 254.673L131.996 251.992C129.315 251.992 125.293 253.332 125.293 256.014C122.612 274.782 113.228 331.086 118.59 363.26C127.974 414.203 169.532 423.587 253.989 423.587C338.446 423.587 380.004 414.203 389.388 363.26C394.751 332.427 385.366 274.782 382.685 256.014C382.685 253.332 378.664 250.651 375.982 251.992Z" fill="white"/>
<path d="M394.75 91.1216V261.376C398.772 286.847 405.475 335.108 400.113 364.601C398.772 371.304 397.432 378.007 394.75 383.369V485.254C394.75 493.297 405.475 498.659 414.859 494.638H416.2C438.99 486.594 455.077 469.167 455.077 449.058V105.868C443.012 99.1651 424.243 92.4622 394.75 91.1216Z" fill="white"/>
<path d="M107.865 364.601C102.503 332.427 110.546 277.463 114.568 254.673C114.568 253.332 115.909 251.992 115.909 250.651V91.1216C86.416 92.4622 67.6478 99.1651 56.9231 105.868V450.398C56.9231 470.507 71.6695 487.935 95.8001 495.978H97.1406C106.525 500 117.249 494.638 117.249 486.594V390.072C113.228 382.029 109.206 373.985 107.865 364.601Z" fill="white"/>
</svg>
