<svg width="512" height="512" viewBox="0 0 512 512" fill="none" xmlns="http://www.w3.org/2000/svg">
<path d="M96.9582 445.627C96.9582 442.908 94.2396 440.189 91.5209 441.549C82.0056 444.267 73.8496 445.627 65.6936 446.986V449.705C65.6936 449.705 69.7716 466.017 80.6462 466.017C86.0836 466.017 92.8802 466.017 96.9582 467.376V445.627Z" fill="white"/>
<path d="M423.198 441.549C420.479 440.189 417.76 442.908 417.76 445.627V466.017C421.838 466.017 428.635 464.657 434.072 464.657C446.306 464.657 449.025 448.345 449.025 448.345V445.627C440.869 446.986 432.713 444.267 423.198 441.549Z" fill="white"/>
<path d="M96.9583 135.699H92.8803C92.8803 135.699 68.4124 137.058 68.4124 154.73V172.401C75.209 173.76 82.0057 175.12 90.1617 177.838C92.8803 179.198 95.599 176.479 95.599 173.76V135.699H96.9583Z" fill="white"/>
<path d="M421.839 135.699H419.12V173.76C419.12 176.479 421.839 179.198 424.557 177.838C432.713 175.12 440.869 172.401 446.307 172.401V154.73C446.307 135.699 421.839 135.699 421.839 135.699Z" fill="white"/>
<path d="M257.359 264.836L217.939 304.256L257.359 343.677L296.78 304.256L257.359 264.836ZM230.173 304.256L257.359 277.07L284.546 304.256L257.359 331.443L230.173 304.256Z" fill="white"/>
<path d="M189.393 277.07L205.705 285.226L232.891 258.039L219.298 245.805L217.939 247.164C217.939 247.164 90.1616 181.916 57.5376 181.916V222.696C57.5376 222.696 162.206 260.758 186.674 278.429L189.393 277.07Z" fill="white"/>
<path d="M186.674 285.226L208.423 302.897L254.641 256.68L230.173 234.93L226.095 240.368L243.766 256.68L207.064 294.741L188.033 283.866L186.674 285.226Z" fill="white"/>
<path d="M208.423 304.256L190.752 321.928L196.189 327.365C196.189 327.365 106.474 395.331 60.2563 395.331V436.111C118.708 436.111 219.298 359.989 219.298 359.989L232.891 373.582L254.641 351.833L208.423 304.256ZM232.891 357.27L200.267 324.646L208.423 315.131L241.047 347.755L232.891 357.27Z" fill="white"/>
<path d="M306.295 302.897L328.045 285.226L326.685 283.866L307.655 294.741L270.953 256.68L288.624 240.368L284.546 234.93L260.078 256.68L306.295 302.897Z" fill="white"/>
<path d="M295.42 245.805L281.827 256.68L309.014 283.866L325.326 275.71L326.685 277.07C349.794 262.117 454.462 222.696 454.462 222.696V180.557C421.838 180.557 295.42 245.805 295.42 245.805Z" fill="white"/>
<path d="M318.529 327.365L323.967 321.928L306.295 304.256L258.719 351.833L280.468 373.582L294.061 359.989C294.061 359.989 394.652 436.111 453.103 436.111V395.331C408.245 395.331 318.529 327.365 318.529 327.365ZM281.827 357.27L273.671 349.114L306.295 316.49L314.451 326.006L281.827 357.27Z" fill="white"/>
<path d="M366.106 417.081V497.281C367.465 497.281 367.465 497.281 367.465 497.281L405.527 475.532V436.111C393.293 432.033 379.699 425.237 366.106 417.081Z" fill="white"/>
<path d="M148.613 418.44C135.019 425.237 121.426 432.033 107.833 437.471V476.891L145.894 498.641H147.253V418.44H148.613Z" fill="white"/>
<path d="M342.997 486.407C351.153 478.251 355.231 467.376 355.231 456.501V419.799C355.231 415.721 352.513 411.643 348.435 408.925C329.404 398.05 314.451 387.175 303.577 380.379C299.499 377.66 294.061 377.66 291.343 381.738L288.624 384.457C284.546 388.535 279.109 388.535 275.031 384.457L268.234 377.66C262.797 372.223 253.281 372.223 247.844 377.66L241.047 384.457C236.969 388.535 231.532 388.535 227.454 384.457L223.376 380.379C220.657 377.66 215.22 376.301 211.142 379.019C200.267 387.175 183.956 398.05 166.284 407.565C162.206 410.284 159.488 414.362 159.488 418.44V455.142C159.488 466.017 163.566 476.891 171.722 485.047L179.878 493.203C190.752 493.203 227.454 500 227.454 500H257.359H287.265C287.265 500 322.607 493.203 334.841 493.203L342.997 486.407Z" fill="white"/>
<path d="M156.769 274.351C155.409 285.226 154.05 297.46 154.05 309.694C154.05 320.568 158.128 330.084 162.206 336.88C167.643 332.802 174.44 328.724 178.518 326.006L174.44 321.928L190.752 309.694C194.83 306.975 194.83 301.538 190.752 300.178L170.362 285.226L173.081 282.507C169.003 279.788 163.565 277.07 156.769 274.351Z" fill="white"/>
<path d="M143.175 309.694C143.175 297.46 144.535 283.866 145.894 272.992C145.894 270.273 144.535 268.914 143.175 267.554C135.019 263.476 125.504 259.398 115.989 255.32C111.911 253.961 109.192 256.68 109.192 260.758V359.989C109.192 364.067 113.27 366.786 117.348 365.426C128.223 359.989 139.097 353.192 149.972 346.396C152.691 345.036 152.691 342.318 151.331 339.599C145.894 331.443 143.175 321.928 143.175 309.694Z" fill="white"/>
<path d="M340.279 321.928L336.201 326.006C341.638 330.084 347.075 332.802 352.513 336.88C356.591 330.084 360.669 320.568 360.669 309.694C360.669 297.46 359.309 285.226 357.95 274.351C351.153 277.07 345.716 279.788 341.638 282.507L344.357 285.226L323.967 300.178C319.889 302.897 321.248 308.334 323.967 309.694L340.279 321.928Z" fill="white"/>
<path d="M371.543 267.554C368.824 268.914 367.465 270.273 368.824 272.992C370.184 283.866 371.543 296.1 371.543 309.694C371.543 321.928 368.824 331.443 364.746 339.599C363.387 342.318 363.387 345.036 366.106 346.396C376.98 353.192 387.855 358.63 398.73 365.426C402.808 366.786 406.886 364.067 406.886 359.989V260.758C406.886 256.68 402.808 253.961 400.089 255.32C389.214 260.758 379.699 264.836 371.543 267.554Z" fill="white"/>
<path d="M84.7243 369.504C88.8023 369.504 91.521 369.504 95.599 368.145V255.32C95.599 251.242 92.8803 248.524 90.1616 247.164C84.7243 244.446 79.287 243.086 72.4903 240.368C69.7717 245.805 68.4123 252.602 68.4123 256.68C68.4123 266.195 67.053 272.992 75.209 281.148C75.209 281.148 90.1616 279.788 77.9277 290.663C71.131 297.46 65.6937 301.538 62.975 304.256C61.6157 305.616 60.2563 308.334 60.2563 311.053V345.036C60.2563 346.396 60.2563 349.114 61.6157 350.474C64.3343 355.911 75.209 369.504 84.7243 369.504Z" fill="white"/>
<path d="M429.995 369.504C440.869 369.504 450.384 355.911 454.462 350.474C454.462 349.114 454.462 346.396 454.462 345.036V311.053C454.462 308.334 453.103 305.616 450.384 304.256C447.666 301.538 442.228 297.46 435.432 290.663C424.557 279.788 438.15 281.148 438.15 281.148C446.306 272.992 444.947 266.195 444.947 256.68C444.947 252.602 442.228 247.164 440.869 240.368C435.432 243.086 428.635 244.446 423.198 247.164C419.12 248.524 417.76 251.242 417.76 255.32V368.145C421.838 368.145 425.917 369.504 429.995 369.504Z" fill="white"/>
<path d="M215.22 173.76H299.499H309.014V89.4819C309.014 86.7632 306.295 84.0446 303.577 84.0446H211.142C208.424 84.0446 205.705 86.7632 205.705 89.4819V173.76H215.22Z" fill="white"/>
<path d="M194.83 85.4039C194.83 82.6852 193.471 81.3259 192.111 79.9666L156.769 55.4986C156.769 55.4986 156.769 55.4986 156.769 56.8579C156.769 71.8106 156.769 78.6072 156.769 82.6852V153.37C156.769 157.448 159.487 160.167 162.206 160.167C171.721 161.526 185.315 165.604 194.83 171.042V85.4039Z" fill="white"/>
<path d="M204.345 73.1699H310.373C311.733 73.1699 313.092 73.1699 314.451 71.8106L353.872 44.624C356.591 43.2646 357.95 40.546 356.591 37.8273C352.513 13.3593 338.919 12 338.919 12H257.359H175.799C175.799 12 162.206 13.3593 158.128 37.8273C158.128 40.546 159.488 43.2646 160.847 44.624L200.267 71.8106C201.627 71.8106 202.986 73.1699 204.345 73.1699Z" fill="white"/>
<path d="M319.889 171.042C329.404 164.245 342.997 161.526 352.513 160.167C356.591 160.167 357.95 156.089 357.95 153.37V82.6852C357.95 78.6072 357.95 71.8106 357.95 56.8579C357.95 56.8579 357.95 56.8579 357.95 55.4986L322.607 79.9666C321.248 81.3259 319.889 84.0446 319.889 85.4039V171.042Z" fill="white"/>
<path d="M140.457 183.276C140.457 175.12 141.816 168.323 144.535 165.604C144.535 164.245 145.894 162.886 145.894 161.526V82.6852C145.894 82.6852 109.192 84.0446 109.192 123.465V135.699V176.479C109.192 180.557 111.911 183.276 114.629 184.635C122.785 187.354 132.301 191.432 140.457 195.51V183.276Z" fill="white"/>
<path d="M406.886 135.699V123.465C406.886 84.0446 370.184 82.6852 370.184 82.6852V160.167C370.184 161.526 370.184 162.886 371.543 164.245C372.903 168.323 375.621 173.76 375.621 181.916V195.51C385.137 191.432 393.292 187.354 401.448 184.635C405.526 183.276 406.886 180.557 406.886 176.479V135.699Z" fill="white"/>
<path d="M363.387 183.276C363.387 177.838 362.028 173.76 360.669 171.042C349.794 172.401 330.763 176.479 322.607 184.635L321.248 185.994H319.889H299.499H215.22H194.83H193.471L192.111 184.635C183.955 176.479 163.566 172.401 154.05 171.042C152.691 173.76 151.332 177.838 151.332 183.276V198.228C151.332 200.947 152.691 202.306 155.41 203.666C181.237 215.9 205.705 226.774 217.939 233.571L230.173 221.337L249.203 239.008C253.281 243.086 260.078 243.086 264.156 239.008L283.187 221.337L295.421 233.571C307.655 226.774 332.123 215.9 357.95 203.666C360.669 202.306 362.028 200.947 362.028 198.228V183.276H363.387Z" fill="white"/>
</svg>
