<svg width="512" height="512" viewBox="0 0 512 512" fill="none" xmlns="http://www.w3.org/2000/svg">
<path d="M329.404 444.267H182.596C162.206 444.267 144.535 427.955 144.535 406.206V302.897C144.535 285.226 159.487 270.273 177.159 270.273H333.482C351.153 270.273 366.106 285.226 366.106 302.897V407.565C366.106 427.955 349.794 444.267 329.404 444.267Z" fill="white"/>
<path d="M321.248 456.501H192.111C174.44 456.501 158.128 448.345 147.253 434.752C155.409 494.563 239.688 500 239.688 500H257.359H275.031C275.031 500 359.309 495.922 367.465 434.752C355.231 448.345 338.919 456.501 321.248 456.501Z" fill="white"/>
<path d="M162.206 247.164V139.777L154.05 138.418C149.972 137.058 147.253 135.699 144.535 132.98V226.774C144.535 240.368 145.894 252.602 149.972 266.195L151.331 271.632C155.409 267.554 160.847 264.836 166.284 262.117C163.565 252.602 163.565 247.164 162.206 247.164Z" fill="white"/>
<path d="M178.518 245.805C178.518 245.805 179.877 251.242 182.596 258.039C182.596 258.039 182.596 258.039 183.955 258.039H326.685C326.685 258.039 326.685 258.039 328.044 258.039C330.763 251.242 332.123 245.805 332.123 245.805V143.855L311.733 149.293C309.014 150.652 304.936 150.652 300.858 150.652H208.423C204.345 150.652 201.627 150.652 197.549 149.293L177.159 143.855V245.805H178.518Z" fill="white"/>
<path d="M356.59 137.058L349.794 139.777V247.164C349.794 247.164 348.434 252.602 345.716 260.758C351.153 263.476 356.59 266.195 360.668 270.273L362.028 264.836C364.746 252.602 367.465 239.008 367.465 225.415V132.98C363.387 134.34 360.668 137.058 356.59 137.058Z" fill="white"/>
<path d="M205.705 137.059C207.064 137.059 208.423 137.059 209.783 137.059H256H302.217C303.576 137.059 304.936 137.059 306.295 137.059V74.5293H205.705V137.059Z" fill="white"/>
<path d="M208.423 63.6546H303.576L360.668 25.5933C356.59 17.4373 347.075 12 337.56 12H174.44C164.925 12 155.409 17.4373 151.331 25.5933L208.423 63.6546Z" fill="white"/>
<path d="M318.529 67.7326V134.34L353.872 126.184C359.309 124.824 363.387 119.387 363.387 113.95V70.4512V67.7326V37.8273L318.529 67.7326Z" fill="white"/>
<path d="M193.47 67.7326L148.613 37.8273V67.7326V70.4512V113.95C148.613 119.387 152.691 124.824 158.128 126.184L193.47 134.34V67.7326Z" fill="white"/>
<path d="M87.4428 255.32V112.59C87.4428 112.59 91.5208 67.7325 126.863 63.6545C129.582 63.6545 130.941 65.0139 130.941 67.7325L128.223 101.716C128.223 103.075 128.223 103.075 128.223 104.434V430.674C128.223 436.111 129.582 441.549 132.301 446.986C136.379 452.423 140.457 461.939 140.457 467.376C140.457 476.891 129.582 475.532 129.582 475.532C129.582 475.532 98.3175 468.735 98.3175 457.861C98.3175 453.783 96.9581 446.986 94.2395 441.549C88.8022 429.315 86.0835 417.081 86.0835 404.847V255.32H87.4428Z" fill="white"/>
<path d="M424.557 255.32V112.59C424.557 112.59 420.479 67.7325 385.136 63.6545C382.418 63.6545 381.058 65.0139 381.058 67.7325L383.777 101.716C383.777 103.075 383.777 103.075 383.777 104.434V430.674C383.777 436.111 382.418 441.549 379.699 446.986C375.621 452.423 371.543 461.939 371.543 467.376C371.543 476.891 382.418 475.532 382.418 475.532C382.418 475.532 413.682 468.735 413.682 457.861C413.682 453.783 415.042 446.986 417.76 441.549C423.198 429.315 425.916 417.081 425.916 404.847V255.32H424.557Z" fill="white"/>
<path d="M73.8494 384.457V247.164C73.8494 244.446 71.1307 241.727 68.4121 241.727H53.4594C52.1001 241.727 49.3814 243.086 48.0221 244.446C45.3034 248.524 41.2255 256.68 41.2255 270.273C41.2255 289.304 50.7408 308.334 50.7408 308.334V316.49C50.7408 316.49 37.1475 355.911 37.1475 381.738C37.1475 407.565 75.2087 403.487 75.2087 403.487V384.457H73.8494Z" fill="white"/>
<path d="M438.15 384.457V247.164C438.15 244.446 440.869 241.727 443.588 241.727H458.54C459.9 241.727 462.618 243.086 463.978 244.446C466.696 248.524 470.774 256.68 470.774 270.273C470.774 289.304 461.259 308.334 461.259 308.334V316.49C461.259 316.49 474.852 355.911 474.852 381.738C474.852 407.565 436.791 403.487 436.791 403.487V384.457H438.15Z" fill="white"/>
</svg>
