<svg width="512" height="512" viewBox="0 0 512 512" fill="none" xmlns="http://www.w3.org/2000/svg">
<path d="M480.48 244.149C480.48 252.514 473.509 260.88 463.749 260.88C455.383 260.88 447.017 253.909 447.017 244.149C447.017 235.783 453.989 227.417 463.749 227.417C472.114 227.417 480.48 235.783 480.48 244.149ZM66.3772 191.166H442.834L455.383 202.32H55.2229L66.3772 191.166ZM283.886 298.526L313.166 348.72L283.886 398.914H226.72L197.44 348.72L226.72 298.526H283.886ZM239.269 244.149C239.269 235.783 246.24 227.417 256 227.417C265.76 227.417 272.731 234.389 272.731 244.149C272.731 252.514 265.76 260.88 256 260.88C246.24 260.88 239.269 252.514 239.269 244.149ZM46.8572 260.88C38.4915 260.88 30.1258 253.909 30.1258 244.149C30.1258 235.783 37.0972 227.417 46.8572 227.417C56.6172 227.417 63.5886 234.389 63.5886 244.149C62.1943 252.514 55.2229 260.88 46.8572 260.88ZM158.4 479.783L105.417 479.783L78.9258 429.589L105.417 379.394H158.4L184.891 429.589L158.4 479.783ZM115.177 348.72C115.177 340.354 122.149 331.989 131.909 331.989C140.274 331.989 148.64 338.96 148.64 348.72C148.64 358.48 141.669 365.452 131.909 365.452C123.543 365.452 115.177 358.48 115.177 348.72ZM158.4 319.44H105.417L78.9258 269.246L105.417 220.446H158.4L184.891 270.64L158.4 319.44ZM187.68 460.263L191.863 451.897H318.743L322.926 460.263H187.68ZM403.794 479.783H350.811L325.714 429.589L352.206 379.394L405.189 379.394L430.286 429.589L403.794 479.783ZM361.966 348.72C361.966 340.354 368.937 331.989 378.697 331.989C388.457 331.989 395.429 338.96 395.429 348.72C395.429 358.48 388.457 365.452 378.697 365.452C368.937 365.452 361.966 358.48 361.966 348.72ZM403.794 319.44H350.811L324.32 269.246L350.811 219.051H403.794L430.286 269.246L403.794 319.44ZM488.846 398.914H453.989L434.469 348.72L453.989 298.526H488.846V228.811C488.938 221.105 483.629 212.556 479.086 207.897L412.16 159.097C409.371 156.308 405.189 154.914 401.006 154.914H109.6C105.417 154.914 102.629 156.308 98.4458 159.097L31.5201 207.897C27.3372 212.08 23.1543 217.657 23.1543 223.234L23.1541 298.526L60.8001 298.526L81.7143 348.72L62.1943 398.914H23.1541V426.8C23.1541 432.377 27.3372 437.954 32.9143 442.137L101.234 492.332C104.023 495.12 108.206 496.515 112.389 496.515H401.006C405.189 496.515 407.977 495.12 412.16 492.332L480.48 442.137C486.057 437.954 488.846 432.377 488.846 426.8V398.914Z" fill="white"/>
<path d="M279.703 348.72C279.703 355.376 277.059 361.76 272.352 366.466C267.645 371.173 261.262 373.817 254.606 373.817C247.95 373.817 241.566 371.173 236.859 366.466C232.153 361.76 229.509 355.376 229.509 348.72C229.509 345.424 230.158 342.161 231.419 339.116C232.68 336.071 234.529 333.304 236.859 330.974C239.19 328.643 241.957 326.795 245.001 325.533C248.046 324.272 251.31 323.623 254.606 323.623C257.901 323.623 261.165 324.272 264.21 325.533C267.255 326.795 270.022 328.643 272.352 330.974C274.683 333.304 276.531 336.071 277.792 339.116C279.054 342.161 279.703 345.424 279.703 348.72Z" fill="#FF5300"/>
<path d="M45.4629 348.72C45.4629 352.016 45.0301 355.279 44.1893 358.324C43.3484 361.369 42.116 364.136 40.5623 366.466C39.0087 368.797 37.1642 370.646 35.1343 371.907C33.1043 373.168 30.9286 373.817 28.7314 373.817C24.294 373.817 20.0383 371.173 16.9005 366.466C13.7628 361.76 12 355.376 12 348.72C12 345.424 12.4328 342.161 13.2736 339.116C14.1144 336.071 15.3469 333.304 16.9005 330.974C18.4542 328.643 20.2986 326.795 22.3286 325.533C24.3585 324.272 26.5342 323.623 28.7314 323.623C30.9286 323.623 33.1043 324.272 35.1343 325.533C37.1642 326.795 39.0087 328.643 40.5623 330.974C42.116 333.304 43.3484 336.071 44.1893 339.116C45.0301 342.161 45.4629 345.424 45.4629 348.72Z" fill="#FF5300"/>
<path d="M500 348.72C500 355.376 498.237 361.76 495.099 366.466C491.962 371.173 487.706 373.817 483.269 373.817C478.831 373.817 474.575 371.173 471.438 366.466C468.3 361.76 466.537 355.376 466.537 348.72C466.537 345.424 466.97 342.161 467.811 339.116C468.652 336.071 469.884 333.304 471.438 330.974C472.991 328.643 474.836 326.795 476.866 325.533C478.896 324.272 481.071 323.623 483.269 323.623C485.466 323.623 487.641 324.272 489.671 325.533C491.701 326.795 493.546 328.643 495.099 330.974C496.653 333.304 497.886 336.071 498.726 339.116C499.567 342.161 500 345.424 500 348.72Z" fill="#FF5300"/>
<path d="M150.034 270.64C150.034 273.936 149.421 277.199 148.23 280.244C147.039 283.289 145.293 286.056 143.092 288.386C140.891 290.717 138.278 292.566 135.402 293.827C132.526 295.088 129.444 295.737 126.332 295.737C120.045 295.737 114.016 293.093 109.571 288.386C105.126 283.68 102.629 277.296 102.629 270.64C102.629 263.984 105.126 257.6 109.571 252.894C114.016 248.187 120.045 245.543 126.332 245.543C129.444 245.543 132.526 246.192 135.402 247.453C138.278 248.715 140.891 250.563 143.092 252.894C145.293 255.224 147.039 257.991 148.23 261.036C149.421 264.081 150.034 267.344 150.034 270.64Z" fill="#FF5300"/>
<path d="M150.034 429.589C150.034 432.885 149.421 436.148 148.23 439.193C147.039 442.238 145.293 445.005 143.092 447.335C140.891 449.666 138.278 451.514 135.402 452.775C132.526 454.037 129.444 454.686 126.332 454.686C120.045 454.686 114.016 452.042 109.571 447.335C105.126 442.628 102.629 436.245 102.629 429.589C102.629 422.933 105.126 416.549 109.571 411.842C114.016 407.136 120.045 404.492 126.332 404.492C129.444 404.492 132.526 405.141 135.402 406.402C138.278 407.663 140.891 409.512 143.092 411.842C145.293 414.173 147.039 416.94 148.23 419.984C149.421 423.029 150.034 426.293 150.034 429.589Z" fill="#FF5300"/>
<path d="M407.977 270.64C407.977 277.296 405.48 283.68 401.035 288.386C396.59 293.093 390.561 295.737 384.274 295.737C377.988 295.737 371.959 293.093 367.514 288.386C363.069 283.68 360.572 277.296 360.572 270.64C360.572 263.984 363.069 257.6 367.514 252.894C371.959 248.187 377.988 245.543 384.274 245.543C390.561 245.543 396.59 248.187 401.035 252.894C405.48 257.6 407.977 263.984 407.977 270.64Z" fill="#FF5300"/>
<path d="M407.977 429.589C407.977 436.245 405.48 442.628 401.035 447.335C396.59 452.042 390.561 454.686 384.274 454.686C377.988 454.686 371.959 452.042 367.514 447.335C363.069 442.628 360.572 436.245 360.572 429.589C360.572 422.933 363.069 416.549 367.514 411.842C371.959 407.136 377.988 404.492 384.274 404.492C390.561 404.492 396.59 407.136 401.035 411.842C405.48 416.549 407.977 422.933 407.977 429.589Z" fill="#FF5300"/>
<path d="M327.109 79.6227H377.303L398.217 99.1427H346.629L327.109 79.6227Z" fill="#F72626"/>
<path d="M201.623 101.931L233.692 67.0741H136.092C124.937 67.0741 115.177 76.8341 115.177 87.9884V115.874L105.417 134L200.229 134V101.931H201.623Z" fill="white"/>
<path d="M211.383 108.903L211.383 134L402.4 134L395.429 122.846V108.903L211.383 108.903Z" fill="white"/>
<path d="M299.223 67.0741H246.24L216.96 99.1427H332.686L299.223 67.0741ZM292.251 93.5656C285.28 93.5656 281.097 87.9884 281.097 82.4113C281.097 76.8341 286.674 71.257 292.251 71.257C299.223 71.257 303.406 76.8341 303.406 82.4113C303.406 87.9884 297.829 93.5656 292.251 93.5656Z" fill="white"/>
<path d="M420.526 15.4855C410.766 15.4855 403.794 16.8798 398.217 18.2741L469.326 111.691C474.903 110.297 480.48 108.903 480.48 108.903V78.2284C480.48 78.2284 500 79.6227 500 67.0741C498.606 48.9484 441.44 15.4855 420.526 15.4855Z" fill="white"/>
<path d="M307.589 18.2741C302.011 16.8798 297.829 15.4855 297.829 15.4855C249.029 15.4855 246.24 55.9198 246.24 55.9198H306.194C306.194 51.737 307.589 48.9484 313.166 46.1598C308.983 36.3998 307.589 26.6398 307.589 18.2741Z" fill="white"/>
<path d="M388.457 19.6684H320.137H318.743C318.743 28.0341 320.137 35.0055 322.926 43.3712C329.897 41.9769 339.657 41.9769 353.6 41.9769C387.063 41.9769 409.371 69.8627 409.371 69.8627C409.371 69.8627 438.651 127.028 445.623 121.451C449.806 118.663 453.989 115.874 459.566 113.086L388.457 19.6684Z" fill="white"/>
</svg>
