<svg width="512" height="512" viewBox="0 0 512 512" fill="none" xmlns="http://www.w3.org/2000/svg">
<path d="M192.392 201.343V401.321L230.383 373.298H282.635L320.171 401.797V201.343L289.773 229.836H228.492L192.392 201.343Z" fill="#9F9F9F"/>
<path d="M140.138 459.745H373.376V481.129L346.768 511.999H168.164L140.138 483.498V459.745Z" fill="#E7B469"/>
<path d="M139.657 445.498L375.269 445.022L375.744 402.746L362.926 389.919H343.916L334.893 400.846L334.887 418.896H318.743L282.642 389.919H231.34L197.61 418.896H172.131L180.514 410.346L180.039 400.846L171.008 389.919H152.013L139.657 401.322V445.498Z" fill="#E7B469"/>
<path d="M198.502 245.905H174.318V267.737H198.502V245.905Z" fill="white"/>
<path d="M198.502 277.31H174.318V299.142H198.502V277.31Z" fill="white"/>
<path d="M198.502 308.547H174.318V330.38H198.502V308.547Z" fill="white"/>
<path d="M198.502 340.456H174.318V362.288H198.502V340.456Z" fill="white"/>
<path d="M339.909 245.903H315.726V267.735H339.909V245.903Z" fill="white"/>
<path d="M339.905 277.311H315.721V299.143H339.905V277.311Z" fill="white"/>
<path d="M339.905 308.549H315.721V330.381H339.905V308.549Z" fill="white"/>
<path d="M339.905 340.454H315.721V362.286H339.905V340.454Z" fill="white"/>
<path d="M299.603 247.584H215.632V264.378H299.603V247.584Z" fill="white"/>
<path d="M297.588 279.157H213.617V295.951H297.588V279.157Z" fill="white"/>
<path d="M299.267 310.564H215.296V327.358H299.267V310.564Z" fill="white"/>
<path d="M299.603 342.134H215.632V358.928H299.603V342.134Z" fill="white"/>
<path d="M140.138 160.494V204.666L152.965 214.637H168.165C177.302 206.376 183.296 196.362 173.383 188.987H201.89L232.291 214.637H278.839L314.943 188.987H342.494C331.603 199.733 336.578 205.85 346.29 214.637H361.973L374.794 203.716L374.798 160.494H140.138Z" fill="#E7B469"/>
<path d="M167.265 93.7538L139.728 121.963V147.157H375.509V121.963L346.29 93.7538H167.265Z" fill="#E7B469"/>
<path d="M125.65 134.839C125.69 108.275 141.574 106.946 149.397 91.6133V35.8004H165.307V0.411255H139.188V84.256L119.475 93.7507L119 127.002C119.558 130.562 123.045 132.449 125.65 134.839Z" fill="white"/>
<path d="M204.212 0.373291H185.403V35.6411H204.212V0.373291Z" fill="white"/>
<path d="M235.045 0.368652H216.236V35.6365H235.045V0.368652Z" fill="white"/>
<path d="M266.461 0.368652H247.652V35.6365H266.461V0.368652Z" fill="white"/>
<path d="M297.241 0.368652H278.432V35.6365H297.241V0.368652Z" fill="white"/>
<path d="M329.098 0.368652H310.288V35.6365H329.098V0.368652Z" fill="white"/>
<path d="M387.65 134.428C387.61 107.863 371.726 106.535 363.904 91.2022V35.3891H347.993V0H374.112V83.8449L393.825 93.3396L394.3 126.59C393.742 130.151 390.255 132.038 387.65 134.428Z" fill="white"/>
</svg>
