<?xml version="1.0" encoding="UTF-8"?>
<svg id="Layer_4" data-name="Layer 4" xmlns="http://www.w3.org/2000/svg" viewBox="0 0 512 512">
  <defs>
    <style>
      .cls-1 {
        fill: red;
      }

      .cls-1, .cls-2 {
        stroke-width: 0px;
      }

      .cls-2 {
        fill: #fff;
      }
    </style>
  </defs>
  <g id="g34">
    <g id="g1177">
      <path id="path4" class="cls-1" d="M250.724,188.076l-13.189,7.914c-5.276,2.638-10.551,1.319-13.189-3.957l-25.059-43.524c-2.638-5.276-1.319-10.551,3.957-13.189l14.508-7.914c5.276-2.638,10.551-1.319,13.189,3.957l25.059,43.524c1.319,5.276,0,10.551-5.276,13.189Z"/>
      <path id="path6" class="cls-2" d="M130.703,172.249l-38.249,65.946c-6.595,10.551-6.595,23.741,0,34.292l67.265,116.065c6.595,10.551,17.146,17.146,30.335,17.146h75.178l-134.53-233.448Z"/>
      <path id="path8" class="cls-2" d="M419.546,238.195l-67.265-116.065c-6.595-10.551-17.146-17.146-30.335-17.146h-97.6l145.081,251.913,48.8-84.411c7.913-10.551,7.913-23.741,1.319-34.292Z"/>
      <path id="path12" class="cls-2" d="M128.065,86.519c-3.957-6.595-3.957-13.189-2.638-19.784,1.319-6.595,6.595-13.189,11.87-15.827,3.957-2.638,9.232-3.957,13.189-3.957,9.232,0,18.465,5.276,22.422,13.189,3.957,6.595,3.957,13.189,2.638,19.784,0,1.319-1.319,2.638-2.638,3.957h26.378l-23.741-42.205h-5.276c-5.276-7.914-15.827-10.551-23.741-5.276l-26.378,15.827c-7.914,3.957-10.551,14.508-6.595,22.422l-2.638,3.957,23.741,42.205,13.189-22.422c-7.914,0-15.827-5.276-19.784-11.87Z"/>
      <path id="path14" class="cls-2" d="M401.081,432.075l-23.741-42.205-13.189,22.422c7.914,1.319,15.827,5.276,21.103,13.189,7.914,13.189,2.638,29.016-9.232,35.611-3.957,2.638-9.232,3.957-13.189,3.957-9.232,0-18.465-5.276-22.422-13.189-3.957-6.595-3.957-13.189-2.638-19.784,0-1.319,1.319-2.638,2.638-3.957h-26.378l23.741,42.205h3.957c5.276,7.913,15.827,10.551,23.741,5.276l27.697-15.827c7.914-5.276,10.551-14.508,6.595-22.422l1.319-5.276Z"/>
      <path id="path16" class="cls-2" d="M299.524,426.8h-125.297c0,1.319,1.319,2.638,2.638,3.957,1.319,6.595,1.319,14.508-2.638,19.784-5.276,7.913-13.189,13.189-22.422,13.189-5.276,0-9.232-1.319-13.189-3.957-6.595-3.957-10.551-9.232-11.87-15.827-1.319-6.595-1.319-14.508,2.638-19.784,3.957-7.914,11.87-11.87,21.103-13.189l-83.092-139.805c-5.276,6.595-13.189,10.551-21.103,10.551-14.508,0-26.378-11.87-26.378-26.378s11.87-26.378,26.378-26.378c9.232,0,17.146,3.957,21.103,10.551l61.989-108.151-23.741-42.205L29.146,222.368c-9.232,0-17.146,7.914-17.146,17.146v31.654c0,9.232,7.914,17.146,17.146,17.146l85.73,147.719c-3.957,7.913-1.319,18.465,6.595,22.422l27.697,15.827c7.914,5.276,18.465,2.638,23.741-5.276h152.995l-26.378-42.205Z"/>
      <path id="path18" class="cls-2" d="M482.854,222.368l-84.411-147.719c3.957-7.914,1.319-18.465-6.595-22.422l-27.697-15.827c-7.914-5.276-18.465-2.638-23.741,5.276h-152.995l23.741,42.205h125.297c0-1.319-1.319-2.638-2.638-3.957-1.319-6.595-1.319-14.508,2.638-19.784,5.276-7.914,13.189-13.189,22.422-13.189,5.276,0,9.232,1.319,13.189,3.957,13.189,7.914,17.146,23.741,9.232,35.611-3.957,7.914-11.87,11.87-21.103,13.189l81.773,141.124c5.276-6.595,13.189-10.551,21.103-10.551,14.508,0,26.378,11.87,26.378,26.378s-11.87,26.378-26.378,26.378c-9.232,0-17.146-3.957-21.103-10.551l-61.989,108.151,23.741,42.205,79.135-134.53c9.232,0,17.146-7.914,17.146-17.146v-31.654c0-9.232-7.913-17.146-17.146-17.146Z"/>
      <circle id="circle20" class="cls-2" cx="44.973" cy="255.341" r="17.146"/>
      <circle id="circle22" class="cls-2" cx="467.027" cy="255.341" r="17.146"/>
      <circle id="circle24" class="cls-2" cx="150.486" cy="73.33" r="17.146"/>
      <circle id="circle26" class="cls-2" cx="361.514" cy="437.351" r="17.146"/>
      <circle id="circle28" class="cls-2" cx="150.486" cy="437.351" r="17.146"/>
      <circle id="circle30" class="cls-2" cx="361.514" cy="73.33" r="17.146"/>
      <path id="path32" class="cls-2" d="M139.935,128.724l11.87,21.103h0l143.762,249.275h0l11.87,19.784h22.422c6.595,0,13.189-1.319,19.784-5.276s10.551-9.232,13.189-15.827l9.232-15.827-13.189-21.103h0l-96.281-168.821-22.422,13.189c-7.914,5.276-19.784,2.638-25.059-6.595l-26.378-44.843c-5.276-7.913-2.638-19.784,6.595-25.059l22.422-13.189h0l-13.189-23.741h-21.103c-5.276,0-11.87,1.319-17.146,3.957-6.595,2.638-11.87,7.914-14.508,14.508l-11.87,18.465Z"/>
    </g>
  </g>
</svg>