<svg width="512" height="512" viewBox="0 0 512 512" fill="none" xmlns="http://www.w3.org/2000/svg">
<path d="M473.956 217.618V165.528C473.956 147.708 461.618 132.629 446.54 132.629H439.686C435.573 132.629 432.832 136.741 432.832 140.854V171.011H419.124V129.887C419.124 120.292 412.27 112.067 404.045 112.067H401.304V164.157H372.517V113.438C364.292 113.438 357.439 121.663 357.439 131.258V172.382H339.618V142.224C339.618 136.741 336.877 134 331.394 134H177.865C173.753 134 169.641 138.112 169.641 142.224V172.382H151.82V131.258C151.82 121.663 144.966 113.438 136.742 113.438H135.371V165.528H105.214V113.438H103.843C95.618 113.438 88.7641 121.663 88.7641 131.258V172.382H75.0562V142.224C75.0562 138.112 72.3146 134 68.2023 134H65.4607C50.382 134 38.0449 149.078 38.0449 166.899V220.359H95.618V356.067H38.0449V409.528C38.0449 427.348 50.382 442.427 65.4607 442.427H69.5731C73.6854 442.427 76.427 438.315 76.427 434.202V406.787H90.1349V445.169C90.1349 454.764 96.9888 462.989 105.214 462.989H106.584V413.641H135.371V462.989H136.742C144.966 462.989 151.82 454.764 151.82 445.169V406.787H169.641V434.202C169.641 439.685 172.382 442.427 177.865 442.427H331.394C335.506 442.427 339.618 438.315 339.618 434.202V406.787H357.439V445.169C357.439 454.764 364.292 462.989 372.517 462.989V413.641H401.304V462.989H404.045C412.27 462.989 419.124 454.764 419.124 445.169V406.787H432.832V434.202C432.832 438.315 435.573 442.427 439.686 442.427H446.54C461.618 442.427 473.956 427.348 473.956 409.528V356.067H416.382V220.359H473.956V217.618Z" fill="#CE3535"/>
<path d="M256 188.831H236.809C234.068 188.831 231.326 191.573 231.326 194.314V264.225H161.416C158.674 264.225 155.933 266.966 155.933 269.708V288.899C155.933 345.101 201.169 390.337 257.371 390.337H276.562C279.304 390.337 282.045 387.596 282.045 384.854V316.315H351.955C354.697 316.315 357.438 313.573 357.438 310.831V291.64C357.438 235.438 312.202 188.831 256 188.831ZM231.326 331.393V376.629C202.539 368.405 179.236 345.101 171.011 316.315H214.877L282.045 249.146V205.281C310.832 213.505 334.135 236.809 342.36 265.595H297.124L231.326 331.393Z" fill="white"/>
<path d="M12 229.955V246.405C12 247.775 13.3708 249.146 16.1124 249.146H31.191C35.3034 249.146 38.045 251.888 38.045 256V264.225H17.4832V306.719H36.6742V316.315C36.6742 319.056 33.9326 323.169 29.8202 323.169H16.1124C14.7416 323.169 12 324.539 12 325.91V342.36H81.9102V229.955H12Z" fill="#CE3535"/>
<path d="M480.81 250.517H495.888C497.259 250.517 500.001 249.146 500.001 247.775V231.326H430.09V343.73H500.001V327.281C500.001 325.91 498.63 324.539 495.888 324.539H480.81C476.697 324.539 473.956 321.798 473.956 317.685V309.461H493.147V266.966H473.956V258.741C473.956 253.258 478.068 250.517 480.81 250.517Z" fill="#CE3535"/>
<path d="M394.45 95.6178H378C378 66.8312 353.326 66.8312 350.585 66.8312H158.674C155.933 66.8312 131.259 68.202 131.259 95.6178H114.809C114.809 81.9099 118.921 70.9436 127.146 62.7189C140.854 50.3818 158.674 50.3818 160.045 49.011H351.955C353.326 49.011 371.146 49.011 383.484 61.3481C390.337 70.9436 394.45 81.9099 394.45 95.6178Z" fill="white"/>
</svg>
