<svg width="512" height="512" viewBox="0 0 512 512" fill="none" xmlns="http://www.w3.org/2000/svg">
<path d="M146.039 144.794L164.835 162.154V280.772L146.039 300.488L144.55 331.346L153.068 342.792L361.751 340.396L365.938 328.396V301.819L338.328 279.707L336.997 166.049L365.938 144.794L365.937 94.3262H345.131L331.781 81.7151H299.14L284.514 94.3262H223.101L208.984 81.7151H173.609L160.528 94.7273H146.04L146.039 144.794Z" fill="white" stroke="white" stroke-width="2.60451"/>
<path d="M360.982 171.538V276.11L377.999 290.857V154.11L360.982 171.538Z" fill="white"/>
<path d="M150.182 274.769C150.182 239.912 150.182 205.055 150.182 170.198L132.659 155.45V292.198L150.182 274.769C150.182 276.11 150.182 276.11 150.182 274.769Z" fill="white"/>
<path d="M325.714 58.9228H183.604C155.45 58.9228 132.659 81.714 132.659 109.868V132.659L146.039 144.794L146.04 94.7273H160.528L173.609 81.7151H208.984L223.101 94.3262H284.513L299.139 81.7151H331.781L345.131 94.3262H365.937L365.938 144.794L378 132.659L377.999 109.868C377.998 81.714 353.868 58.9228 325.714 58.9228Z" fill="white"/>
<path d="M365.938 328.396C365.938 332.418 362.1 336.44 355.417 336.44H158.161C148.304 336.44 146.039 333.604 146.039 328.396V300.488L131.319 313.648V332.418C131.319 352.232 139.934 361.912 160.813 361.912H356.072C374.157 361.912 377.999 351.694 377.999 332.418V313.648L365.938 301.819V328.396Z" fill="white"/>
<path d="M301.583 18.703C297.561 14.681 292.198 11.9996 286.835 11.9996H254.659H222.484C217.121 11.9996 211.758 14.681 207.736 18.703C201.033 28.0876 186.286 41.4942 168.857 41.4942V48.1975H253.319H337.78V41.4942C323.033 41.4942 308.286 28.0876 301.583 18.703ZM217.121 37.4722L227.846 28.0876H281.473L292.198 37.4722H217.121Z" fill="white"/>
<path d="M156.791 373.978V426.264C156.791 428.945 159.473 431.627 162.154 431.627H347.165C349.846 431.627 352.528 428.945 352.528 426.264V373.978H156.791ZM176.901 420.901C172.879 420.901 170.198 418.22 170.198 414.198C170.198 410.176 172.879 407.495 176.901 407.495C180.923 407.495 183.604 410.176 183.604 414.198C183.604 416.879 180.923 420.901 176.901 420.901ZM176.901 396.769C172.879 396.769 170.198 394.088 170.198 390.066C170.198 386.044 172.879 383.363 176.901 383.363C180.923 383.363 183.604 386.044 183.604 390.066C183.604 394.088 180.923 396.769 176.901 396.769ZM195.67 408.835C191.648 408.835 188.967 406.154 188.967 402.132C188.967 398.11 191.648 395.429 195.67 395.429C199.692 395.429 202.374 398.11 202.374 402.132C202.374 406.154 199.692 408.835 195.67 408.835ZM215.78 420.901C211.758 420.901 209.077 418.22 209.077 414.198C209.077 410.176 211.758 407.495 215.78 407.495C219.802 407.495 222.484 410.176 222.484 414.198C222.484 416.879 219.802 420.901 215.78 420.901ZM215.78 396.769C211.758 396.769 209.077 394.088 209.077 390.066C209.077 386.044 211.758 383.363 215.78 383.363C219.802 383.363 222.484 386.044 222.484 390.066C222.484 394.088 219.802 396.769 215.78 396.769ZM234.55 408.835C230.528 408.835 227.846 406.154 227.846 402.132C227.846 398.11 230.528 395.429 234.55 395.429C238.572 395.429 241.253 398.11 241.253 402.132C241.253 406.154 238.572 408.835 234.55 408.835ZM254.66 420.901C250.638 420.901 247.956 418.22 247.956 414.198C247.956 410.176 250.638 407.495 254.66 407.495C258.682 407.495 261.363 410.176 261.363 414.198C261.363 416.879 258.682 420.901 254.66 420.901ZM254.66 396.769C250.638 396.769 247.956 394.088 247.956 390.066C247.956 386.044 250.638 383.363 254.66 383.363C258.682 383.363 261.363 386.044 261.363 390.066C261.363 394.088 258.682 396.769 254.66 396.769ZM274.769 408.835C270.747 408.835 268.066 406.154 268.066 402.132C268.066 398.11 270.747 395.429 274.769 395.429C278.791 395.429 281.473 398.11 281.473 402.132C280.132 406.154 277.451 408.835 274.769 408.835ZM293.539 420.901C289.517 420.901 286.835 418.22 286.835 414.198C286.835 410.176 289.517 407.495 293.539 407.495C297.561 407.495 300.242 410.176 300.242 414.198C300.242 416.879 296.22 420.901 293.539 420.901ZM293.539 396.769C289.517 396.769 286.835 394.088 286.835 390.066C286.835 386.044 289.517 383.363 293.539 383.363C297.561 383.363 300.242 386.044 300.242 390.066C300.242 394.088 296.22 396.769 293.539 396.769ZM313.649 408.835C309.627 408.835 306.945 406.154 306.945 402.132C306.945 398.11 309.627 395.429 313.649 395.429C317.671 395.429 320.352 398.11 320.352 402.132C320.352 406.154 316.33 408.835 313.649 408.835ZM332.418 420.901C328.396 420.901 325.715 418.22 325.715 414.198C325.715 410.176 328.396 407.495 332.418 407.495C336.44 407.495 339.121 410.176 339.121 414.198C337.781 416.879 335.099 420.901 332.418 420.901ZM332.418 396.769C328.396 396.769 325.715 394.088 325.715 390.066C325.715 386.044 328.396 383.363 332.418 383.363C336.44 383.363 339.121 386.044 339.121 390.066C339.121 394.088 335.099 396.769 332.418 396.769Z" fill="white"/>
<path d="M352.528 477.209L337.781 500H352.528C365.934 500 375.319 490.616 376.66 477.209H352.528Z" fill="white"/>
<path d="M215.78 500L294.879 500L280.132 477.209H230.528L215.78 500Z" fill="white"/>
<path d="M156.791 477.209H132.659C134 489.275 143.384 500 156.791 500L171.538 500L156.791 477.209Z" fill="white"/>
<path d="M378 459.781L357.89 439.671H353.868C349.846 446.374 344.484 450.396 336.44 450.396H175.561C167.517 450.396 160.813 446.374 158.132 439.671H154.11L134 459.781V466.484H160.813L175.561 490.616C179.582 495.978 184.945 500 191.648 500H195.67H199.692C206.396 500 213.099 495.978 215.78 490.616L230.528 466.484H284.154L298.901 490.616C302.923 495.978 308.286 500 314.989 500H323.033C329.737 500 336.44 495.978 339.121 490.616L353.868 466.484H380.682V459.781H378Z" fill="#FE7E00"/>
<path d="M254.66 280.132L218.462 251.978V195.67H289.517V251.978L254.66 280.132ZM223.824 250.637L254.66 274.769L285.495 250.637V201.033H223.824V250.637Z" fill="#FE7E00"/>
<path d="M246.615 261.363L250.637 241.253L241.253 243.934L243.934 206.396H229.187V247.956L246.615 261.363Z" fill="black"/>
<path d="M273.429 225.165L249.297 262.703L254.66 268.066L280.132 247.956V206.396H268.066L260.022 229.187L273.429 225.165Z" fill="black"/>
<path d="M269.407 294.879L254.659 284.154L239.912 294.879L254.659 319.011L269.407 294.879Z" fill="black"/>
<path d="M206.396 294.879L230.528 276.11L214.44 294.879H225.165L246.616 280.132L218.462 258.681L195.67 294.879H206.396Z" fill="black"/>
<path d="M301.583 296.22L277.451 276.11L294.879 296.22H282.813L262.703 281.473L290.857 260.022L312.308 296.22H301.583Z" fill="black"/>
<path d="M174.22 210.418L213.099 250.637V179.582L159.472 135.341L162.154 147.406L195.67 180.923L164.835 162.154L166.176 168.857L195.67 198.352L168.857 182.264L170.198 188.967L195.67 213.099L172.879 201.033L174.22 210.418Z" fill="black"/>
<path d="M328.558 210.418L296.22 250.637V179.582L341.965 135.341L340.624 147.406L313.649 180.923L337.943 162.154L336.602 168.857L313.649 198.352L333.921 182.264L332.58 188.967L313.649 213.099L329.899 201.033L328.558 210.418Z" fill="black"/>
<path d="M273.429 156.791L290.857 154.11L286.835 147.406L273.429 146.066L269.407 140.703L227.846 134L239.912 148.747L234.55 167.516L219.802 172.879V191.648H290.857V172.879L277.451 167.516L273.429 156.791ZM257.341 147.406L254.659 142.044L264.044 143.384L257.341 147.406Z" fill="black"/>
</svg>
