<svg width="512" height="512" viewBox="0 0 512 512" fill="none" xmlns="http://www.w3.org/2000/svg">
<path d="M398.646 233.477V378V379.877L426.8 400.523V210.954L398.646 233.477Z" fill="white"/>
<path d="M383.631 400.523C376.123 394.892 372.369 387.385 372.369 378V233.477C372.369 224.092 376.123 216.585 383.631 210.954L426.8 179.046V147.138C426.8 107.723 394.892 75.8154 355.477 75.8154H156.523C117.108 75.8154 85.2 107.723 85.2 147.138V179.046L128.369 210.954C135.877 216.585 139.631 224.092 139.631 233.477V378C139.631 387.385 135.877 394.892 128.369 400.523L85.2 432.431V458.708C85.2 481.231 103.969 500 126.492 500H385.508C408.031 500 426.8 481.231 426.8 458.708V432.431L383.631 400.523Z" fill="white"/>
<path d="M113.354 379.877V235.354V233.477L85.2 212.831V404.277L113.354 379.877Z" fill="white"/>
<path d="M383.631 400.523C376.123 394.892 372.369 387.385 372.369 378V233.477C372.369 224.092 376.123 216.585 383.631 210.954L396.769 201.569V130.246C396.769 117.108 387.385 107.723 374.246 107.723H137.754C124.615 107.723 115.231 117.108 115.231 130.246V201.569L128.369 210.954C135.877 216.585 139.631 224.092 139.631 233.477V378C139.631 387.385 135.877 394.892 128.369 400.523L115.231 409.908V453.077C115.231 458.708 120.861 464.338 126.492 464.338H385.508C391.138 464.338 396.769 458.708 396.769 453.077V409.908L383.631 400.523Z" fill="#274BA6"/>
<path d="M256 426.8L156.523 349.846V192.185H353.6V349.846L256 426.8ZM171.538 344.215L256 409.908L340.461 344.215V207.2H169.661V344.215H171.538Z" fill="white"/>
<path d="M233.477 374.246L242.861 316.062L218.461 325.446L227.846 220.339H184.677V336.708L233.477 374.246Z" fill="white"/>
<path d="M327.323 336.708V220.339H291.661L272.892 286.031L306.677 274.769L239.108 378L256 391.139L327.323 336.708Z" fill="white"/>
<path d="M321.692 21.3846C316.062 15.7538 308.554 12 301.046 12H256H210.954C203.446 12 195.938 15.7538 190.308 21.3846C180.923 34.5231 160.277 53.2923 135.877 53.2923V62.6769H254.123H372.369V53.2923C351.723 53.2923 331.077 32.6462 321.692 21.3846ZM203.446 45.7846L218.462 32.6462H293.538L308.554 45.7846H203.446Z" fill="white"/>
</svg>
