<svg width="512" height="512" viewBox="0 0 512 512" fill="none" xmlns="http://www.w3.org/2000/svg">
<path d="M357.22 171.538V274.769V276.11L377.33 290.857V154.11L357.22 171.538C357.22 170.198 357.22 170.198 357.22 171.538Z" fill="white"/>
<path d="M346.494 290.857C341.132 286.835 338.45 281.473 338.45 274.769V171.538C338.45 164.835 341.132 159.473 346.494 155.451L377.33 132.659V109.868C377.33 81.7143 354.538 58.9231 326.385 58.9231H184.275C156.121 58.9231 133.33 81.7143 133.33 109.868V132.659L164.165 155.451C169.527 159.473 172.209 164.835 172.209 171.538V274.769C172.209 281.473 169.527 286.835 164.165 290.857L133.33 313.648V332.418C133.33 348.506 146.736 361.912 162.824 361.912H347.835C363.923 361.912 377.33 348.506 377.33 332.418V313.648L346.494 290.857Z" fill="white"/>
<path d="M153.439 274.769V171.538V170.198L133.33 155.451V292.198L153.439 274.769C153.439 276.11 153.439 276.11 153.439 274.769Z" fill="white"/>
<path d="M346.494 290.857C341.132 286.835 338.45 281.472 338.45 274.769V171.538C338.45 164.835 341.132 159.472 346.494 155.45L355.879 148.747V97.8021C355.879 88.4175 349.176 81.7142 339.791 81.7142H170.868C162.824 81.7142 154.78 88.4175 154.78 97.8021V148.747L164.165 155.45C169.527 159.472 172.209 164.835 172.209 171.538V274.769C172.209 281.472 169.527 286.835 164.165 290.857L154.78 297.56V328.396C154.78 332.418 158.802 336.44 162.824 336.44H347.835C351.857 336.44 355.879 332.418 355.879 328.396V297.56L346.494 290.857Z" fill="#274BA6"/>
<path d="M255.33 309.626L184.275 254.659V142.044H325.044V254.659L255.33 309.626ZM195 249.297L255.33 296.22L315.659 249.297V151.429H193.659V249.297H195Z" fill="white"/>
<path d="M245.945 230.527L228.516 237.231L235.22 162.154H204.385V245.275L239.242 270.747L245.945 230.527Z" fill="white"/>
<path d="M306.275 162.154H280.802L267.396 207.736L291.527 199.692L243.264 274.769L255.33 284.154L306.275 245.275V162.154Z" fill="white"/>
<path d="M302.253 18.7033C298.231 14.6813 292.868 12 287.505 12H255.33H223.154C217.791 12 212.428 14.6813 208.406 18.7033C201.703 28.0879 186.956 41.4945 169.527 41.4945V48.1978H253.989H338.45V41.4945C323.703 41.4945 308.956 28.0879 302.253 18.7033ZM217.791 37.4725L228.516 28.0879H282.143L292.868 37.4725H217.791Z" fill="white"/>
<path d="M157.461 373.978V426.264C157.461 428.945 160.143 431.626 162.824 431.626H347.835C350.516 431.626 353.198 428.945 353.198 426.264V373.978H157.461ZM177.571 420.901C173.549 420.901 170.868 418.22 170.868 414.198C170.868 410.176 173.549 407.495 177.571 407.495C181.593 407.495 184.275 410.176 184.275 414.198C184.275 416.879 181.593 420.901 177.571 420.901ZM177.571 396.769C173.549 396.769 170.868 394.088 170.868 390.066C170.868 386.044 173.549 383.363 177.571 383.363C181.593 383.363 184.275 386.044 184.275 390.066C184.275 394.088 181.593 396.769 177.571 396.769ZM196.341 408.835C192.319 408.835 189.637 406.154 189.637 402.132C189.637 398.11 192.319 395.429 196.341 395.429C200.363 395.429 203.044 398.11 203.044 402.132C203.044 406.154 200.363 408.835 196.341 408.835ZM216.45 420.901C212.428 420.901 209.747 418.22 209.747 414.198C209.747 410.176 212.428 407.495 216.45 407.495C220.472 407.495 223.154 410.176 223.154 414.198C223.154 416.879 220.472 420.901 216.45 420.901ZM216.45 396.769C212.428 396.769 209.747 394.088 209.747 390.066C209.747 386.044 212.428 383.363 216.45 383.363C220.472 383.363 223.154 386.044 223.154 390.066C223.154 394.088 220.472 396.769 216.45 396.769ZM235.22 408.835C231.198 408.835 228.516 406.154 228.516 402.132C228.516 398.11 231.198 395.429 235.22 395.429C239.242 395.429 241.923 398.11 241.923 402.132C241.923 406.154 239.242 408.835 235.22 408.835ZM255.33 420.901C251.308 420.901 248.626 418.22 248.626 414.198C248.626 410.176 251.308 407.495 255.33 407.495C259.352 407.495 262.033 410.176 262.033 414.198C262.033 416.879 259.352 420.901 255.33 420.901ZM255.33 396.769C251.308 396.769 248.626 394.088 248.626 390.066C248.626 386.044 251.308 383.363 255.33 383.363C259.352 383.363 262.033 386.044 262.033 390.066C262.033 394.088 259.352 396.769 255.33 396.769ZM275.439 408.835C271.417 408.835 268.736 406.154 268.736 402.132C268.736 398.11 271.417 395.429 275.439 395.429C279.461 395.429 282.143 398.11 282.143 402.132C280.802 406.154 278.121 408.835 275.439 408.835ZM294.209 420.901C290.187 420.901 287.505 418.22 287.505 414.198C287.505 410.176 290.187 407.495 294.209 407.495C298.231 407.495 300.912 410.176 300.912 414.198C300.912 416.879 296.89 420.901 294.209 420.901ZM294.209 396.769C290.187 396.769 287.505 394.088 287.505 390.066C287.505 386.044 290.187 383.363 294.209 383.363C298.231 383.363 300.912 386.044 300.912 390.066C300.912 394.088 296.89 396.769 294.209 396.769ZM314.319 408.835C310.297 408.835 307.615 406.154 307.615 402.132C307.615 398.11 310.297 395.429 314.319 395.429C318.341 395.429 321.022 398.11 321.022 402.132C321.022 406.154 317 408.835 314.319 408.835ZM333.088 420.901C329.066 420.901 326.384 418.22 326.384 414.198C326.384 410.176 329.066 407.495 333.088 407.495C337.11 407.495 339.791 410.176 339.791 414.198C338.45 416.879 335.769 420.901 333.088 420.901ZM333.088 396.769C329.066 396.769 326.384 394.088 326.384 390.066C326.384 386.044 329.066 383.363 333.088 383.363C337.11 383.363 339.791 386.044 339.791 390.066C339.791 394.088 335.769 396.769 333.088 396.769Z" fill="white"/>
<path d="M378.67 466.483V459.78L358.56 439.67H354.538C350.516 446.374 345.154 450.396 337.11 450.396H176.231C168.187 450.396 161.483 446.374 158.802 439.67H154.78L134.67 459.78V466.483H378.67Z" fill="white"/>
<path d="M133.33 477.209C134.67 489.275 144.055 500 157.461 500H354.538C367.945 500 377.33 490.615 378.67 477.209H133.33Z" fill="white"/>
</svg>
