<svg width="512" height="512" viewBox="0 0 512 512" fill="none" xmlns="http://www.w3.org/2000/svg">
<path d="M288.623 100.698C277.446 115.134 264.635 122.235 248.943 107.321L57.1133 296.132L211.057 450.66L406.396 264.943C388.74 247.803 400.395 229.666 411.283 221.906L374.415 184.66C337.617 219.793 289.57 175.294 329.113 139.358L288.623 100.698ZM234.51 194.509L308.472 264.849L309.076 290.113L190.604 402.547L108.226 319.566L234.51 194.509Z" fill="white"/>
<path d="M370.081 14.1504L294.334 90.0147L275.891 73.388L341.839 7.84375C352.238 8.23113 361.852 9.98567 370.081 14.1504Z" fill="#D6332A"/>
<path d="M498.076 141.196L422.954 214.966L441.178 232.256L504.416 169.291C504.027 158.946 502.263 149.382 498.076 141.196Z" fill="#D6332A"/>
<path d="M343.856 138.497L375.761 171.935L438.931 108.69C455.36 84.0604 424.689 59.5949 404.581 77.6837L343.856 138.497Z" fill="#D6332A"/>
<path d="M297.315 93.5596L305.435 101.348C323.312 85.1955 343.11 104.985 328.367 124.017L338.077 133.459L397.912 71.3514C425.698 42.6901 473.619 88.3714 445.934 114.065L382.471 176.448L388.792 182.594C406.044 168.032 427.502 186.925 412.576 205.462L420.081 212.243L496.356 136.129C492.932 96.5707 456.77 34.8521 376.324 15.957L297.315 93.5596Z" fill="#D6332A"/>
<path d="M48.6981 308.755L0 362.264L20.2264 437.528L76.3585 493.359L152.132 512L203.245 462.679L48.6981 308.755ZM58.9811 340.566C58.9876 340.566 58.9942 340.566 59.0006 340.566C61.7061 340.484 64.3472 341.416 66.4234 343.186C68.4995 344.956 69.8663 347.441 70.2647 350.17L70.342 350.981C70.5626 353.925 69.6402 356.841 67.7736 359.099C65.9069 361.357 63.2452 362.778 60.3608 363.057C57.4763 363.332 54.6009 362.443 52.3532 360.58C50.1054 358.717 48.665 356.029 48.342 353.094C48.0175 350.16 48.836 347.213 50.6215 344.888C52.4069 342.563 55.0167 341.045 57.8892 340.66C58.2521 340.61 58.615 340.58 58.9811 340.566ZM28.7925 367.359C28.7989 367.358 28.8055 367.358 28.8119 367.359C31.5174 367.276 34.1586 368.209 36.2347 369.979C38.3108 371.749 39.6776 374.234 40.0761 376.962L40.1533 377.774C40.3739 380.718 39.4516 383.633 37.5849 385.892C35.7183 388.15 33.0565 389.571 30.1722 389.849C27.2847 390.125 24.4069 389.233 22.1586 387.366C19.9104 385.498 18.4718 382.806 18.1533 379.868C17.834 376.937 18.6549 373.995 20.4399 371.674C22.2248 369.353 24.8316 367.837 27.7005 367.453C28.0635 367.402 28.4263 367.372 28.7925 367.359ZM69.1887 377.981C71.8942 377.899 74.5353 378.831 76.6114 380.601C78.6876 382.372 80.0543 384.856 80.4528 387.585L80.5495 388.396C80.7699 391.344 79.8453 394.261 77.9746 396.52C76.104 398.779 73.4372 400.198 70.5495 400.472C67.6681 400.742 64.7973 399.851 62.5537 397.988C60.3101 396.126 58.8726 393.44 58.5495 390.509C58.225 387.575 59.0435 384.628 60.829 382.303C62.6145 379.978 65.2242 378.46 68.0967 378.075C68.4597 378.025 68.8226 377.995 69.1887 377.981ZM107.453 393.302C107.459 393.302 107.466 393.302 107.472 393.302C110.178 393.22 112.819 394.152 114.895 395.922C116.971 397.692 118.338 400.177 118.736 402.906L118.814 403.717C119.029 406.658 118.105 409.568 116.239 411.823C114.373 414.077 111.713 415.495 108.833 415.774C105.948 416.049 103.073 415.16 100.825 413.297C98.5771 411.434 97.1367 408.746 96.8137 405.811C96.4944 402.88 97.3152 399.939 99.1002 397.617C100.885 395.296 103.492 393.78 106.361 393.396C106.724 393.346 107.087 393.316 107.453 393.302ZM42.3962 403.925C42.4027 403.925 42.4092 403.925 42.4157 403.925C45.1212 403.842 47.7623 404.775 49.8384 406.545C51.9145 408.315 53.2814 410.8 53.6798 413.528L53.7571 414.34C53.9777 417.284 53.0553 420.199 51.1887 422.458C49.322 424.716 46.6603 426.137 43.7759 426.415C40.8914 426.691 38.0154 425.802 35.7677 423.939C33.5199 422.076 32.08 419.387 31.7571 416.453C31.4326 413.519 32.2511 410.572 34.0366 408.246C35.822 405.921 38.4318 404.403 41.3042 404.019C41.6672 403.968 42.0301 403.938 42.3962 403.925ZM80.6792 416.679C83.3848 416.597 86.0259 417.529 88.102 419.3C90.1781 421.07 91.5449 423.554 91.9434 426.283L92.0401 427.094C92.2605 430.042 91.3358 432.959 89.4652 435.218C87.5946 437.477 84.9278 438.896 82.0401 439.17C79.1555 439.446 76.2802 438.557 74.0324 436.693C71.7847 434.83 70.3442 432.142 70.0212 429.208C69.697 426.27 70.5184 423.321 72.3078 420.995C74.0972 418.669 76.7114 417.153 79.5873 416.774C79.9502 416.723 80.3131 416.693 80.6792 416.679ZM123.17 430.509C126.081 430.422 128.924 431.405 131.16 433.272C133.396 435.139 134.869 437.761 135.302 440.642L135.399 441.509C135.635 444.62 134.64 447.7 132.629 450.086C130.618 452.471 127.75 453.971 124.644 454.264C121.534 454.555 118.434 453.613 116.013 451.64C113.592 449.667 112.043 446.821 111.7 443.716C111.358 440.62 112.243 437.512 114.165 435.061C116.088 432.609 118.895 431.009 121.983 430.603C122.378 430.551 122.772 430.522 123.17 430.509ZM160.189 445.811C162.894 445.729 165.535 446.662 167.611 448.432C169.688 450.202 171.054 452.686 171.453 455.415L171.55 456.226C171.765 459.171 170.838 462.084 168.968 464.338C167.097 466.593 164.434 468.009 161.55 468.283C158.665 468.559 155.79 467.67 153.542 465.807C151.294 463.943 149.854 461.255 149.531 458.321C149.212 455.387 150.035 452.443 151.824 450.121C153.613 447.799 156.224 446.285 159.097 445.906C159.46 445.855 159.823 445.825 160.189 445.811ZM96.3962 458.359C96.4027 458.359 96.4092 458.359 96.4157 458.359C99.1212 458.276 101.762 459.209 103.838 460.979C105.915 462.749 107.281 465.234 107.68 467.962L107.757 468.774C107.973 471.715 107.048 474.625 105.182 476.879C103.315 479.133 100.657 480.552 97.7759 480.83C94.8914 481.106 92.0154 480.217 89.7677 478.354C87.5199 476.491 86.08 473.802 85.7571 470.868C85.4326 467.934 86.2511 464.987 88.0366 462.662C89.8221 460.336 92.4318 458.818 95.3042 458.434C95.6675 458.39 96.0304 458.366 96.3962 458.359ZM135.943 470.679C135.95 470.679 135.956 470.679 135.963 470.679C138.665 470.602 141.302 471.536 143.374 473.306C145.446 475.076 146.81 477.558 147.208 480.283L147.305 481.094C147.525 484.042 146.6 486.959 144.729 489.218C142.859 491.477 140.193 492.896 137.305 493.17C134.423 493.44 131.553 492.549 129.309 490.686C127.065 488.824 125.628 486.138 125.305 483.208C124.98 480.273 125.799 477.327 127.584 475.001C129.37 472.676 131.98 471.158 134.852 470.774C135.215 470.723 135.577 470.693 135.943 470.679Z" fill="#D6332A"/>
<path d="M16.3755 446.016L66.5482 495.976" stroke="#D6332A"/>
<path d="M312.94 190.758L281.238 220.245L325.962 263.394L357.663 233.907L312.94 190.758Z" fill="#DF3135"/>
<path d="M390.561 184.051C407.894 168.934 423.924 189.891 410.599 203.625L390.561 184.051Z" fill="#D6332A"/>
<path d="M417.834 227.366L432.308 240.788L415.676 257.496C403.743 245.857 406.212 237.952 417.834 227.366Z" fill="white"/>
<path d="M283.092 97.1474L269.67 82.6733L252.962 99.306C264.601 111.238 272.506 108.769 283.092 97.1474Z" fill="white"/>
<path d="M335.719 145.913C306.567 175.229 340.753 206.214 367.952 178.573L335.719 145.913Z" fill="white"/>
<path d="M307.228 102.73C324.562 87.6137 340.23 108.57 326.905 122.304L307.228 102.73Z" fill="#D6332A"/>
</svg>
