<?xml version="1.0" encoding="UTF-8"?>
<svg id="Layer_4" data-name="Layer 4" xmlns="http://www.w3.org/2000/svg" viewBox="0 0 512 512">
  <defs>
    <style>
      .cls-1 {
        fill: #e3a34d;
      }

      .cls-1, .cls-2, .cls-3, .cls-4, .cls-5, .cls-6, .cls-7 {
        stroke-width: 0px;
      }

      .cls-2 {
        fill: #cdc863;
      }

      .cls-3 {
        opacity: .25;
      }

      .cls-3, .cls-5 {
        isolation: isolate;
      }

      .cls-3, .cls-5, .cls-7 {
        fill: #fff;
      }

      .cls-4 {
        fill: #b2b2b2;
      }

      .cls-5 {
        opacity: .5;
      }

      .cls-6 {
        fill: #b68241;
      }
    </style>
  </defs>
  <g id="g1037">
    <rect id="rect4" class="cls-3" x="272.088" y="60.264" width="202.44" height="388.791"/>
    <path id="path6" class="cls-5" d="M424.923,396.769h-119.319c-5.363,0-10.725-4.022-10.725-10.725V124.616c0-5.363,4.022-10.725,10.725-10.725h119.319c5.363,0,10.725,4.022,10.725,10.725v261.429c0,6.703-5.363,10.725-10.725,10.725Z"/>
    <path id="path8" class="cls-7" d="M50.879,66.967c0,8.044,6.703,14.747,14.747,14.747h49.604c8.044,0,14.747-6.703,14.747-14.747v-1.341h8.044v1.341c0,8.044,6.703,14.747,14.747,14.747h21.451c8.044,0,14.747-6.703,14.747-14.747v-1.341h5.363v4.022c0,6.703,5.363,12.066,12.066,12.066h30.835c6.703,0,12.066-5.363,12.066-12.066v-29.495H65.626c-29.495,0-53.626,24.132-53.626,53.626v324.44c0,29.494,24.132,53.626,53.626,53.626h183.67v-28.154c0-5.363-5.363-10.725-10.725-10.725h-30.835c-5.363,0-10.725,5.363-10.725,10.725v2.681h-10.725v-1.341c0-5.363-4.022-9.385-9.385-9.385h-40.22c-4.022,1.341-8.044,5.363-8.044,9.385v1.341h-5.363c-1.341-4.022-4.022-6.703-8.044-6.703h-21.451c-4.022,0-6.703,2.681-8.044,6.703h-6.703v-1.341c0-5.363-4.022-9.385-9.385-9.385h-10.725c-5.363,0-9.385,4.022-9.385,9.385l-6.703,1.341v-13.407h0c6.703,0,13.407-5.363,13.407-13.407v-13.407c0-6.703-5.363-13.407-13.407-13.407h0v-9.385c6.703-1.341,10.725-6.703,10.725-13.407v-5.363c0-6.703-5.363-12.066-10.725-13.407v-2.681c6.703-1.341,12.066-6.703,12.066-13.407v-50.945c0-6.703-5.363-12.066-12.066-13.407v-2.681c5.363-1.341,10.725-5.363,10.725-12.066v-26.813c0-6.703-5.363-12.066-12.066-12.066v-9.385c6.703-1.341,10.725-5.363,10.725-12.066v-32.176c0-6.703-5.363-12.066-10.725-12.066v-1.341c6.703-1.341,10.725-6.703,10.725-13.407v-45.582c0-6.703-5.363-12.066-10.725-13.407v-12.066l9.385,1.341Z"/>
    <path id="path10" class="cls-7" d="M470.505,65.627v10.725c-6.703,1.341-12.066,8.044-12.066,14.747v34.857c0,8.044,5.363,13.407,12.066,14.747v5.363c-6.703,0-13.407,5.363-13.407,13.407v30.835c0,6.703,5.363,13.407,13.407,13.407v9.385h0c-6.703,0-12.066,5.363-12.066,12.066v24.132c0,6.703,5.363,12.066,12.066,12.066h0v5.363c-6.703,1.341-13.407,6.703-13.407,14.747v44.242c0,8.044,5.363,13.407,13.407,14.747v5.363h-1.341c-6.703,0-12.066,5.363-12.066,12.066v8.044c0,6.703,5.363,12.066,12.066,12.066h1.341v12.066c-6.703,1.341-12.066,6.703-12.066,14.747v10.725c0,6.703,5.363,13.407,12.066,14.747v13.407l-6.703-1.341c-1.341-4.022-2.681-5.363-6.703-5.363h-14.747c-4.022,0-6.703,2.681-8.044,6.703h-10.725c-1.341-4.022-4.022-6.703-9.385-6.703h-13.407c-4.022,0-8.044,2.681-9.385,6.703h-16.088c-1.341-4.022-4.022-6.703-8.044-6.703h-37.538c-4.022,0-6.703,2.681-8.044,6.703h-10.725v-1.341c0-5.363-4.022-9.385-9.385-9.385h-18.769c-5.363,0-9.385,4.022-9.385,9.385v28.154h172.945c29.495,0,53.626-24.132,53.626-53.626V93.78c0-29.495-24.132-53.626-53.626-53.626h-174.286v29.495c0,6.703,5.363,12.066,12.066,12.066h24.132c6.703,0,12.066-5.363,12.066-12.066v-4.022h6.703v2.681c0,8.044,6.703,13.407,13.407,13.407h20.11c8.044,0,13.407-6.703,13.407-13.407v-2.681h5.363v4.022c0,6.703,5.363,10.725,10.725,10.725h60.33c6.703,0,10.725-5.363,10.725-10.725l9.385-4.022Z"/>
    <path id="path12" class="cls-7" d="M250.637,383.363H77.692c-2.681,0-5.363-2.681-5.363-5.363v-21.451c0-2.681,2.681-5.363,5.363-5.363h172.945c2.681,0,5.363,2.681,5.363,5.363v21.451c0,4.022-2.681,5.363-5.363,5.363Z"/>
    <path id="path14" class="cls-1" d="M235.89,320.352h-100.549c-2.681,0-5.363-2.681-5.363-5.363v-76.418c0-2.681,2.681-5.363,5.363-5.363h100.549v87.143Z"/>
    <rect id="rect16" class="cls-6" x="207.736" y="233.209" width="9.385" height="87.143"/>
    <rect id="rect18" class="cls-6" x="178.242" y="233.209" width="9.385" height="87.143"/>
    <rect id="rect20" class="cls-6" x="148.747" y="233.209" width="9.385" height="87.143"/>
    <path id="path22" class="cls-7" d="M121.934,314.989v-76.418c0-8.044,6.703-13.407,13.407-13.407h115.297v-8.044H81.714v127.363h168.923v-16.088h-115.297c-8.044,0-13.407-6.703-13.407-13.407Z"/>
    <polygon id="polygon24" class="cls-2" points="113.89 128.638 105.846 128.638 105.846 136.681 105.846 147.407 113.89 147.407 113.89 136.681 129.978 136.681 129.978 147.407 138.022 147.407 138.022 136.681 160.813 136.681 160.813 147.407 176.901 147.407 176.901 136.681 217.121 136.681 217.121 147.407 225.165 147.407 225.165 136.681 225.165 128.638 217.121 128.638 176.901 128.638 160.813 128.638 138.022 128.638 129.978 128.638 113.89 128.638"/>
    <path id="path26" class="cls-3" d="M249.297,399.451H77.692c-12.066,0-21.451-9.385-21.451-21.451v-18.769c0-8.044,4.022-14.747,10.725-18.769v-115.297h-9.385v-38.879c0-10.725,6.703-18.769,16.088-22.791v-9.385c0-10.725,6.703-18.769,16.088-21.451v-18.769h151.495v18.769c4.022,1.341,6.703,2.681,9.385,5.363V60.264H33.451v388.791h215.846v-49.604h0Z"/>
    <path id="path28" class="cls-7" d="M249.297,176.901H81.714c-5.363,0-8.044,4.022-8.044,8.044v24.132h183.67v-22.791c0-5.363-4.022-9.385-8.044-9.385Z"/>
    <path id="path30" class="cls-4" d="M241.253,152.769c0-4.022-2.681-6.703-6.703-6.703H95.121c-4.022,0-6.703,2.681-6.703,6.703v24.132h152.835v-24.132Z"/>
  </g>
</svg>