<svg width="512" height="512" viewBox="0 0 512 512" fill="none" xmlns="http://www.w3.org/2000/svg">
<path d="M460.275 155.682L450.675 172.313H419.393L389.443 120.436C384.683 108.453 392.687 96.7148 400.581 96.3533L428.257 155.682H460.275Z" fill="white" stroke="white" stroke-width="0.5" stroke-linecap="round" stroke-linejoin="round"/>
<path d="M500 173.721C500 164.255 492.327 156.581 482.861 156.581C473.395 156.581 465.721 164.255 465.721 173.721V406.515C465.721 415.981 473.395 423.655 482.861 423.655C492.327 423.655 500 415.981 500 406.515V173.721Z" fill="white"/>
<path d="M452.858 187.53H136.661V268.568H452.858V187.53Z" fill="white"/>
<path d="M136.661 281.593H455.029V408.94L422.738 408.947L421.335 359.732L419.931 425.407H391.34L389.936 359.732L388.533 408.947H203.995L202.592 359.732L201.188 425.407H169.528L168.125 359.732L166.721 408.947H136.661V281.593Z" fill="black" fill-opacity="0.35"/>
<path d="M123.18 173.726C123.18 164.26 115.507 156.586 106.041 156.586C96.5745 156.586 88.9006 164.26 88.9006 173.726V406.52C88.9006 415.986 96.5745 423.66 106.041 423.66C115.507 423.66 123.18 415.986 123.18 406.52V173.726Z" fill="white"/>
<path d="M133.767 155.689L143.367 172.32H174.648L204.599 120.444C209.359 108.461 201.355 96.7226 193.461 96.3611L165.785 155.689H133.767Z" fill="white" stroke="white" stroke-width="0.5" stroke-linecap="round" stroke-linejoin="round"/>
<path d="M378.693 86.5925H219.871V121.685H378.693V86.5925Z" fill="black" fill-opacity="0.5" stroke="black" stroke-opacity="0.5" stroke-width="0.5" stroke-linecap="round" stroke-linejoin="round"/>
<path d="M75.166 180.285L75.1586 399.534C29.8938 400.737 20.488 394.847 21.2531 345.628V233.476C20.3535 191.664 41.588 179.594 75.166 180.285Z" fill="#FDD01B"/>
<path d="M12 270.014H75.166V309.976H12V270.014Z" fill="white"/>
</svg>
