<svg width="512" height="512" viewBox="0 0 512 512" fill="none" xmlns="http://www.w3.org/2000/svg">
<path d="M49.4866 177.454V158.744L158.731 49.5H177.481V28.6697H149.167L28.6562 149.18V177.454H49.4866Z" fill="white"/>
<path d="M49.4866 353.269V334.56H28.6562V362.833L149.167 483.344H177.441V462.513H158.731L49.4866 353.269Z" fill="white"/>
<path d="M462.5 334.56V353.269L353.255 462.513H334.546V483.344H362.82L483.33 362.833V334.56H462.5Z" fill="white"/>
<path d="M462.5 158.744V177.494H483.33V149.18L362.82 28.6697H334.546V49.5H353.255L462.5 158.744Z" fill="white"/>
<path d="M12 274.905H30.2502V286.833H12V309.555H49.4865V202.445H12V225.167H30.2502V237.095H12V274.905Z" fill="white"/>
<path d="M274.905 500V481.75H286.834V500H309.555V462.513H202.445V500H225.167V481.75H237.095V500H274.905Z" fill="white"/>
<path d="M500 237.095H481.75V225.167H500V202.445H462.514V309.555H500V286.833H481.75V274.905H500V237.095Z" fill="white"/>
<path d="M237.095 12V30.2502H225.167V12H202.445V49.4865H309.555V12H286.834V30.2502H274.905V12H237.095Z" fill="white"/>
<path d="M255.993 430.079C251.186 430.087 246.425 429.145 241.983 427.307C237.541 425.468 233.506 422.77 230.111 419.367L92.6332 281.889C85.7732 275.022 81.9199 265.713 81.9199 256.007C81.9199 246.3 85.7732 236.991 92.6332 230.124L230.111 92.6467C237.086 85.9939 246.354 82.2823 255.993 82.2823C265.632 82.2823 274.901 85.9939 281.876 92.6467L419.353 230.124C426.213 236.991 430.067 246.3 430.067 256.007C430.067 265.713 426.213 275.022 419.353 281.889L281.876 419.367C278.481 422.77 274.446 425.468 270.004 427.307C265.562 429.145 260.801 430.087 255.993 430.079ZM255.993 92.6602C252.594 92.6518 249.227 93.3159 246.086 94.6142C242.944 95.9125 240.091 97.8194 237.689 100.225L100.212 237.703C95.366 242.562 92.645 249.144 92.645 256.007C92.645 262.869 95.366 269.452 100.212 274.311L237.689 411.775C242.545 416.627 249.129 419.353 255.993 419.353C262.858 419.353 269.442 416.627 274.298 411.775L411.762 274.311C416.614 269.455 419.339 262.871 419.339 256.007C419.339 249.142 416.614 242.558 411.762 237.703L274.298 100.225C271.896 97.8188 269.043 95.9115 265.901 94.6132C262.76 93.3149 259.393 92.6511 255.993 92.6602Z" fill="#B1FD56"/>
<path d="M339.017 343.489L337.761 303.098L295.722 312.027L310.582 322.834C297.973 333.193 282.68 339.754 266.485 341.754C250.29 343.753 233.86 341.107 219.111 334.126C204.362 327.144 191.901 316.114 183.182 302.321C174.462 288.528 169.843 272.541 169.862 256.223C169.881 249.859 170.601 243.517 172.01 237.311L158.326 230.867C152.868 251.797 154.284 273.927 162.364 293.991C170.444 314.055 184.761 330.989 203.2 342.295C221.64 353.601 243.226 358.679 264.772 356.781C286.318 354.882 306.683 346.107 322.861 331.75L339.017 343.489Z" fill="#B1FD56"/>
<path d="M255.993 155.138C231.331 155.128 207.528 164.197 189.125 180.615L172.915 168.876L174.171 209.267L216.21 200.338L201.351 189.531C213.959 179.172 229.252 172.61 245.447 170.611C261.642 168.612 278.072 171.257 292.821 178.239C307.57 185.221 320.031 196.251 328.751 210.044C337.47 223.837 342.09 239.824 342.07 256.142C342.053 262.506 341.332 268.848 339.922 275.054L353.607 281.498C357.537 266.576 357.987 250.951 354.92 235.828C351.853 220.705 345.352 206.49 335.918 194.279C326.485 182.067 314.372 172.187 300.514 165.4C286.656 158.614 271.424 155.103 255.993 155.138Z" fill="#B1FD56"/>
<path d="M235.19 256.209L244.795 232.475L256.317 266.773L265.314 244.687L271.785 256.209H310.474C311.338 253.338 311.793 250.36 311.824 247.361C311.847 240.885 309.982 234.543 306.457 229.11C302.933 223.676 297.902 219.388 291.979 216.768C286.056 214.149 279.499 213.312 273.108 214.359C266.717 215.407 260.77 218.294 255.993 222.667C251.217 218.29 245.269 215.399 238.876 214.348C232.483 213.298 225.922 214.134 219.997 216.755C214.071 219.375 209.038 223.665 205.513 229.101C201.988 234.537 200.124 240.882 200.148 247.361C200.18 250.359 200.635 253.338 201.499 256.209H235.19Z" fill="#B1FD56"/>
<path d="M267.597 263.355L266.341 261.1L255.669 287.279L244.173 253.048L239.999 263.355H204.39C205.332 265.061 206.416 266.683 207.632 268.205L255.993 315.242L304.354 268.165C305.57 266.643 306.655 265.02 307.596 263.315L267.597 263.355Z" fill="#B1FD56"/>
</svg>
